<svg width="50" height="50" viewBox="0 0 50 50" fill="none" xmlns="http://www.w3.org/2000/svg">
<path d="M45 0H5C2.23858 0 0 2.23858 0 5V45C0 47.7614 2.23858 50 5 50H45C47.7614 50 50 47.7614 50 45V5C50 2.23858 47.7614 0 45 0Z" fill="#CD6799"/>
<path d="M25 11C26.8385 11 28.659 11.3621 30.3576 12.0657C32.0561 12.7693 33.5995 13.8005 34.8995 15.1005C36.1995 16.4005 37.2307 17.9439 37.9343 19.6424C38.6379 21.341 39 23.1615 39 25C39 28.713 37.525 32.274 34.8995 34.8995C32.274 37.525 28.713 39 25 39C23.1615 39 21.341 38.6379 19.6424 37.9343C17.9439 37.2307 16.4005 36.1995 15.1005 34.8995C12.475 32.274 11 28.713 11 25C11 21.287 12.475 17.726 15.1005 15.1005C17.726 12.475 21.287 11 25 11V11ZM22.2 29.662C22.424 30.418 22.396 31.118 22.2 31.762C22.2 31.832 22.144 31.902 22.116 32C22.088 32 22.06 32.098 22.018 32.168C21.864 32.504 21.64 32.826 21.374 33.106C20.562 34.002 19.4 34.338 18.938 34.058C18.406 33.75 18.7 32.49 19.624 31.496C20.632 30.432 22.088 29.732 22.088 29.732L22.2 29.662ZM33.778 16.992C33.148 14.5 29.018 13.688 25.126 15.074C22.802 15.9 20.282 17.188 18.476 18.882C16.334 20.898 15.984 22.648 16.124 23.376C16.6 25.952 20.156 27.646 21.612 28.892V28.906C21.192 29.116 18.056 30.698 17.3 32.322C16.544 34.03 17.44 35.262 18 35.43C19.876 35.934 21.766 35.024 22.774 33.498C23.754 32.042 23.684 30.152 23.25 29.2C23.838 29.06 24.524 28.99 25.392 29.088C27.856 29.382 28.332 30.908 28.234 31.552C28.15 32.196 27.632 32.546 27.464 32.658C27.296 32.756 27.24 32.798 27.254 32.882C27.268 32.994 27.352 32.994 27.492 32.966C27.702 32.924 28.794 32.448 28.836 31.258C28.892 29.746 27.45 28.066 24.902 28.108C23.852 28.136 23.194 28.234 22.718 28.416L22.606 28.29C21.024 26.61 18.112 25.42 18.238 23.152C18.28 22.326 18.56 20.17 23.838 17.538C28.15 15.382 31.608 15.97 32.21 17.3C33.064 19.162 30.362 22.648 25.882 23.152C24.174 23.348 23.264 22.676 23.04 22.438C22.802 22.2 22.774 22.158 22.69 22.2C22.536 22.298 22.634 22.522 22.69 22.662C22.816 23.012 23.376 23.6 24.3 23.936C25.126 24.202 27.142 24.356 29.564 23.418C32.28 22.368 34.408 19.442 33.778 16.992Z" fill="white"/>
</svg>
